# xmcd
#
# Track frame offsets:
# 150
# 19120
# 35005
# 56215
# 74432
# 92205
# 107280
# 125717
# 145520
# 161115
# 178512
# 195455
# 212470
# 234622
#
# Disc length: 3358 seconds
#
#
# Revision: 0
# Processed by: cddbd v1.5.1PL0 Copyright (c) Steve Scherf et al.
# Submitted via: FreeRIP 2.92 
#
DISCID=c40d1c0e
DTITLE=Leandro and Leonardo - Leandro and Leonardo Vol. 11
DYEAR=1997
DGENRE=Country
TTITLE0=Essas Mulheres
TTITLE1=Cerveja
TTITLE2=Foi um tiro em minha vida
TTITLE3=Rumo a Goiania
TTITLE4=Se for preciso chorar
TTITLE5=Anarrie
TTITLE6=O amor que a gente faz
TTITLE7=Pedindo Amor
TTITLE8=Segura peão
TTITLE9=História de um amor
TTITLE10=Cama fria
TTITLE11=Pode ser você meu grande amor
TTITLE12=Onde foi que eu errei
TTITLE13=Salva minha vida
EXTD=
EXTT0=
EXTT1=
EXTT2=
EXTT3=
EXTT4=
EXTT5=
EXTT6=
EXTT7=
EXTT8=
EXTT9=
EXTT10=
EXTT11=
EXTT12=
EXTT13=
PLAYORDER=
